<?xml version="1.0" encoding="UTF-8" standalone="no"?>
<svg
   xmlns:dc="http://purl.org/dc/elements/1.1/"
   xmlns:cc="http://creativecommons.org/ns#"
   xmlns:rdf="http://www.w3.org/1999/02/22-rdf-syntax-ns#"
   xmlns:svg="http://www.w3.org/2000/svg"
   xmlns="http://www.w3.org/2000/svg"
   id="Livello_1"
   data-name="Livello 1"
   viewBox="0 0 294.38001 23.910334"
   version="1.1"
   width="294.38"
   height="23.910334">
  <metadata
     id="metadata125">
    <rdf:RDF>
      <cc:Work
         rdf:about="">
        <dc:format>image/svg+xml</dc:format>
        <dc:type
           rdf:resource="http://purl.org/dc/dcmitype/StillImage" />
        <dc:title>marchi per web</dc:title>
      </cc:Work>
    </rdf:RDF>
  </metadata>
  <defs
     id="defs4">
    <style
       id="style2">.cls-1{fill:#b71918;}.cls-2{fill:#fff;}</style>
  </defs>
  <title
     id="title6">marchi per web</title>
  <rect
     class="cls-2"
     x="0"
     y="18.170334"
     width="21.6"
     height="3.5999999"
     id="rect10" />
  <rect
     class="cls-2"
     x="0"
     y="13.670334"
     width="21.6"
     height="3.5999999"
     id="rect12" />
  <rect
     class="cls-2"
     x="0"
     y="9.1703339"
     width="21.6"
     height="3.5999999"
     id="rect14" />
  <rect
     class="cls-2"
     x="0"
     y="4.6703339"
     width="21.6"
     height="3.5999999"
     id="rect16" />
  <rect
     class="cls-2"
     x="0"
     y="0.17033407"
     width="21.6"
     height="3.5999999"
     id="rect18" />
  <path
     class="cls-2"
     d="m 22.279999,22.170334 v -8.7 h 8.7 z m 0.35,-8.34 v 7.49 l 7.5,-7.49 z"
     id="path20" />
  <path
     class="cls-2"
     d="m 33.439999,12.950334 h -11.16 V 8.9503341 h 11.16 z m -10.77,-0.36 h 10.42 V 9.3503341 h -10.42 z"
     id="path22" />
  <path
     class="cls-2"
     d="m 33.439999,8.4403341 h -11.16 v -4 h 11.16 z m -10.77,-0.35 h 10.42 v -3.24 h -10.42 z"
     id="path24" />
  <path
     class="cls-2"
     d="m 43.879999,6.7003341 a 2.75,2.75 0 0 0 -0.17,-1.12 0.64,0.64 0 0 0 -0.58,-0.35 v -0.32 h 3.22 v 0.32 a 0.65,0.65 0 0 0 -0.58,0.34 2.74,2.74 0 0 0 -0.17,1.13 v 5.8799999 a 4.63,4.63 0 0 0 0.7,2.92 2.94,2.94 0 0 0 2.38,0.84 4.9,4.9 0 0 0 1.35,-0.17 2.91,2.91 0 0 0 1,-0.51 2.51,2.51 0 0 0 0.8,-1.25 11.21,11.21 0 0 0 0.23,-2.71 V 7.7903341 a 4.85,4.85 0 0 0 -0.28,-1.85 1.13,1.13 0 0 0 -0.88,-0.71 v -0.32 h 2.79 v 0.32 a 1.23,1.23 0 0 0 -0.82,0.75 5.36,5.36 0 0 0 -0.23,1.89 v 3.8499999 a 13,13 0 0 1 -0.18,2.52 3.2,3.2 0 0 1 -0.57,1.36 3.43,3.43 0 0 1 -1.47,1.09 6,6 0 0 1 -2.2,0.36 5.87,5.87 0 0 1 -2.13,-0.36 3.65,3.65 0 0 1 -1.47,-1 3.05,3.05 0 0 1 -0.56,-1.19 10.48,10.48 0 0 1 -0.17,-2.2 z"
     id="path26" />
  <path
     class="cls-2"
     d="m 48.209999,17.170334 a 5.79,5.79 0 0 1 -2.16,-0.37 3.6,3.6 0 0 1 -1.51,-1.08 3.06,3.06 0 0 1 -0.57,-1.22 9.9,9.9 0 0 1 -0.18,-2.22 V 6.7003341 a 2.57,2.57 0 0 0 -0.16,-1.08 0.56,0.56 0 0 0 -0.51,-0.31 h -0.08 v -0.49 h 3.4 v 0.49 h -0.08 a 0.56,0.56 0 0 0 -0.51,0.3 2.59,2.59 0 0 0 -0.16,1.09 v 5.8799999 a 4.51,4.51 0 0 0 0.68,2.86 2.85,2.85 0 0 0 2.31,0.82 4.65,4.65 0 0 0 1.32,-0.17 2.78,2.78 0 0 0 1,-0.49 2.36,2.36 0 0 0 0.76,-1.21 10.92,10.92 0 0 0 0.23,-2.68 V 7.7903341 a 4.65,4.65 0 0 0 -0.27,-1.81 1,1 0 0 0 -0.81,-0.67 h -0.07 v -0.48 h 3 v 0.47 h -0.06 a 1.15,1.15 0 0 0 -0.77,0.7 5.45,5.45 0 0 0 -0.23,1.86 v 3.8499999 a 14.4,14.4 0 0 1 -0.17,2.54 3.39,3.39 0 0 1 -0.59,1.4 3.49,3.49 0 0 1 -1.51,1.12 6.13,6.13 0 0 1 -2.3,0.4 z m -5,-11.9999999 a 0.73,0.73 0 0 1 0.57,0.4 2.56,2.56 0 0 1 0.19,1.16 v 5.5499999 a 10.26,10.26 0 0 0 0.17,2.18 3,3 0 0 0 0.54,1.15 3.34,3.34 0 0 0 1.44,1 5.61,5.61 0 0 0 2.09,0.36 5.88,5.88 0 0 0 2.17,-0.35 3.41,3.41 0 0 0 1.44,-1.06 3.46,3.46 0 0 0 0.55,-1.33 13.81,13.81 0 0 0 0.17,-2.5 V 7.8703341 a 5.57,5.57 0 0 1 0.24,-1.93 1.33,1.33 0 0 1 0.81,-0.78 v -0.16 h -2.61 v 0.17 a 1.24,1.24 0 0 1 0.87,0.76 4.79,4.79 0 0 1 0.28,1.88 v 3.9199999 a 10.84,10.84 0 0 1 -0.23,2.73 2.58,2.58 0 0 1 -0.82,1.3 3,3 0 0 1 -1,0.52 4.62,4.62 0 0 1 -1.37,0.17 3,3 0 0 1 -2.43,-0.89 4.75,4.75 0 0 1 -0.72,-3 V 6.7003341 a 2.58,2.58 0 0 1 0.19,-1.17 0.74,0.74 0 0 1 0.53,-0.36 v -0.14 h -3.07 z"
     id="path28" />
  <path
     class="cls-2"
     d="M 55.989999,14.360334 V 6.8003341 a 2.21,2.21 0 0 0 -0.24,-1.16 0.93,0.93 0 0 0 -0.75,-0.41 v -0.32 h 2.5 l 6.64,9.3199999 V 8.3803341 a 7.1,7.1 0 0 0 -0.27,-2.34 1.21,1.21 0 0 0 -0.94,-0.81 v -0.32 h 2.64 v 0.32 a 1.54,1.54 0 0 0 -0.66,0.85 8,8 0 0 0 -0.19,2.18 v 8.6599999 h -0.68 l -7.48,-10.4899999 v 7.7999999 a 3.53,3.53 0 0 0 0.29,1.56 1.21,1.21 0 0 0 0.87,0.68 v 0.32 h -2.86 v -0.32 a 1.51,1.51 0 0 0 0.86,-0.72 3,3 0 0 0 0.27,-1.39 z"
     id="path30" />
  <path
     class="cls-2"
     d="m 64.809999,17.000334 h -0.81 v 0 l -7.32,-10.2599999 v 7.5199999 a 3.32,3.32 0 0 0 0.28,1.52 1.11,1.11 0 0 0 0.8,0.64 h 0.08 v 0.47 h -3 v -0.46 h 0.06 a 1.49,1.49 0 0 0 0.81,-0.68 2.91,2.91 0 0 0 0.26,-1.35 V 6.8003341 a 2.11,2.11 0 0 0 -0.23,-1.11 0.85,0.85 0 0 0 -0.68,-0.38 h -0.08 v -0.49 h 2.64 v 0 l 6.48,9.0999999 V 8.3803341 a 7.24,7.24 0 0 0 -0.26,-2.31 1.15,1.15 0 0 0 -0.88,-0.76 h -0.07 v -0.48 h 2.82 v 0.46 0 a 1.44,1.44 0 0 0 -0.63,0.81 8.26,8.26 0 0 0 -0.18,2.15 z m -0.72,-0.17 h 0.54 V 8.2603341 a 8.06,8.06 0 0 1 0.2,-2.21 1.58,1.58 0 0 1 0.66,-0.87 v -0.18 h -2.48 v 0.17 a 1.29,1.29 0 0 1 0.94,0.85 6.94,6.94 0 0 1 0.28,2.37 v 6.1299999 l -6.78,-9.5099999 h -2.37 v 0.16 a 1,1 0 0 1 0.74,0.44 2.3,2.3 0 0 1 0.25,1.21 v 7.5599999 a 3,3 0 0 1 -0.28,1.43 1.57,1.57 0 0 1 -0.84,0.74 v 0.17 h 2.68 v -0.16 a 1.31,1.31 0 0 1 -0.86,-0.71 3.53,3.53 0 0 1 -0.3,-1.6 V 6.1703341 Z"
     id="path32" />
  <path
     class="cls-2"
     d="m 67.529999,16.790334 v -0.31 a 0.65,0.65 0 0 0 0.58,-0.36 2.64,2.64 0 0 0 0.17,-1.1 V 6.7003341 a 2.75,2.75 0 0 0 -0.17,-1.12 0.64,0.64 0 0 0 -0.58,-0.35 v -0.32 h 3.22 v 0.32 a 0.65,0.65 0 0 0 -0.58,0.34 2.74,2.74 0 0 0 -0.17,1.13 v 8.3199999 a 2.66,2.66 0 0 0 0.17,1.11 0.63,0.63 0 0 0 0.58,0.34 v 0.32 z"
     id="path34" />
  <path
     class="cls-2"
     d="m 70.839999,16.870334 h -3.4 v -0.47 h 0.08 a 0.55,0.55 0 0 0 0.51,-0.31 2.46,2.46 0 0 0 0.16,-1.06 V 6.7003341 a 2.57,2.57 0 0 0 -0.16,-1.08 0.56,0.56 0 0 0 -0.51,-0.31 h -0.08 v -0.49 h 3.4 v 0.49 h -0.08 a 0.56,0.56 0 0 0 -0.51,0.3 2.59,2.59 0 0 0 -0.16,1.09 v 8.3199999 a 2.45,2.45 0 0 0 0.16,1.07 0.53,0.53 0 0 0 0.51,0.29 h 0.08 z m -3.23,-0.17 h 3.06 v -0.15 a 0.71,0.71 0 0 1 -0.58,-0.38 2.65,2.65 0 0 1 -0.18,-1.15 V 6.7003341 a 2.58,2.58 0 0 1 0.19,-1.17 0.74,0.74 0 0 1 0.57,-0.39 v -0.14 h -3.06 v 0.17 a 0.73,0.73 0 0 1 0.57,0.4 2.56,2.56 0 0 1 0.19,1.16 v 8.3199999 a 2.63,2.63 0 0 1 -0.18,1.14 0.73,0.73 0 0 1 -0.58,0.4 z"
     id="path36" />
  <path
     class="cls-2"
     d="m 76.719999,17.050334 -3.51,-10.2499999 a 4.27,4.27 0 0 0 -0.49,-1.08 1.21,1.21 0 0 0 -0.58,-0.49 v -0.32 h 3.14 v 0.32 a 0.7,0.7 0 0 0 -0.42,0.21 0.6,0.6 0 0 0 -0.14,0.41 1.29,1.29 0 0 0 0,0.25 3.56,3.56 0 0 0 0.1,0.36 l 2.87,8.5799999 2.59,-7.9299999 a 2,2 0 0 0 0.08,-0.35 c 0,-0.12 0,-0.24 0,-0.36 a 1.45,1.45 0 0 0 -0.23,-0.78 0.82,0.82 0 0 0 -0.56,-0.39 v -0.32 h 2.79 v 0.32 a 2.2,2.2 0 0 0 -1,0.77 5.6,5.6 0 0 0 -0.69,1.52 l -3,9.5299999 z"
     id="path38" />
  <path
     class="cls-2"
     d="m 77.789999,17.170334 h -1.13 v -0.06 l -3.51,-10.2599999 a 4.58,4.58 0 0 0 -0.48,-1 1.16,1.16 0 0 0 -0.54,-0.46 h -0.06 v -0.47 h 3.36 v 0.48 h -0.07 a 0.72,0.72 0 0 0 -0.37,0.19 0.5,0.5 0 0 0 -0.12,0.35 1.11,1.11 0 0 0 0,0.23 c 0,0.09 0.05,0.21 0.09,0.35 l 2.79,8.3199999 2.39,-7.6699999 a 3.2,3.2 0 0 0 0.07,-0.33 c 0,-0.12 0,-0.24 0,-0.35 a 1.28,1.28 0 0 0 -0.22,-0.73 0.73,0.73 0 0 0 -0.49,-0.36 h -0.08 v -0.48 h 3 v 0.46 0 a 2.07,2.07 0 0 0 -0.9,0.74 5.3,5.3 0 0 0 -0.68,1.5 z m -1,-0.18 h 0.87 l 3,-9.4699999 a 5.9,5.9 0 0 1 0.7,-1.54 2.32,2.32 0 0 1 0.92,-0.81 v -0.17 h -2.61 v 0.17 a 1,1 0 0 1 0.54,0.43 1.47,1.47 0 0 1 0.25,0.82 2.31,2.31 0 0 1 0,0.37 1.91,1.91 0 0 1 -0.18,0.38 l -2.56,8.1999999 -0.08,-0.26 -2.88,-8.5799999 c 0,-0.15 -0.07,-0.28 -0.1,-0.38 a 1.38,1.38 0 0 1 0,-0.26 0.68,0.68 0 0 1 0.17,-0.47 0.79,0.79 0 0 1 0.45,-0.25 v -0.16 h -3 v 0.16 a 1.32,1.32 0 0 1 0.56,0.5 4.4,4.4 0 0 1 0.51,1.1 z"
     id="path40" />
  <path
     class="cls-2"
     d="m 83.629999,16.790334 v -0.32 a 0.61,0.61 0 0 0 0.58,-0.34 2.54,2.54 0 0 0 0.18,-1.11 V 6.7003341 a 2.55,2.55 0 0 0 -0.18,-1.13 0.62,0.62 0 0 0 -0.58,-0.34 v -0.32 h 8.3 l 0.19,2.31 -0.35,0.05 a 2.42,2.42 0 0 0 -1.09,-1.39 6.83,6.83 0 0 0 -2.84,-0.39 h -0.51 a 2.17,2.17 0 0 0 -1.07,0.15 c -0.12,0.1 -0.19,0.36 -0.19,0.78 v 3.38 h 1.72 a 5.21,5.21 0 0 0 1.9,-0.25 1.43,1.43 0 0 0 0.77,-0.89 h 0.27 v 2.8199999 h -0.29 a 1.47,1.47 0 0 0 -0.65,-0.87 4.24,4.24 0 0 0 -1.77,-0.24 h -2 v 4.7 c 0,0.53 0.09,0.85 0.26,1 a 3,3 0 0 0 1.35,0.18 c 0.87,0 1.48,0 1.86,0 a 4.9,4.9 0 0 0 1,-0.19 3.18,3.18 0 0 0 1,-0.6 6.83,6.83 0 0 0 1,-1.19 l 0.35,0.19 -0.7,2.41 z"
     id="path42" />
  <path
     class="cls-2"
     d="m 92.279999,16.870334 h -8.74 v -0.48 h 0.08 a 0.54,0.54 0 0 0 0.51,-0.29 2.54,2.54 0 0 0 0.16,-1.07 V 6.7003341 a 2.56,2.56 0 0 0 -0.16,-1.09 0.57,0.57 0 0 0 -0.51,-0.3 h -0.08 v -0.49 h 8.46 l 0.2,2.48 -0.5,0.07 v -0.07 a 2.33,2.33 0 0 0 -1,-1.34 6.85,6.85 0 0 0 -2.8,-0.38 h -0.51 c -0.74,0 -1,0.08 -1,0.13 0,0.05 -0.15,0.2 -0.15,0.71 v 3.29 h 1.63 a 5.11,5.11 0 0 0 1.87,-0.24 1.41,1.41 0 0 0 0.72,-0.84 v -0.06 h 0.42 v 2.9999999 h -0.44 v -0.06 a 1.41,1.41 0 0 0 -0.61,-0.82 4.23,4.23 0 0 0 -1.73,-0.23 h -1.86 v 4.61 c 0,0.62 0.12,0.83 0.22,0.9 a 2.73,2.73 0 0 0 1.3,0.16 c 0.86,0 1.48,0 1.85,0 a 5.55,5.55 0 0 0 0.95,-0.18 2.92,2.92 0 0 0 1,-0.59 6.26,6.26 0 0 0 1,-1.17 v -0.06 l 0.48,0.26 v 0.06 z m -8.57,-0.17 h 8.44 l 0.65,-2.28 -0.21,-0.11 a 7.49,7.49 0 0 1 -1,1.14 3.15,3.15 0 0 1 -1.05,0.61 4.56,4.56 0 0 1 -1,0.19 c -0.37,0 -1,0.06 -1.86,0.06 a 2.81,2.81 0 0 1 -1.4,-0.2 c -0.2,-0.14 -0.29,-0.48 -0.29,-1 v -4.83 h 2 a 4.44,4.44 0 0 1 1.82,0.25 1.61,1.61 0 0 1 0.67,0.86 h 0.14 V 8.7403341 h -0.13 a 1.52,1.52 0 0 1 -0.79,0.89 5.16,5.16 0 0 1 -1.94,0.26 h -1.8 v -3.47 c 0,-0.46 0.06,-0.73 0.21,-0.85 0.15,-0.12 0.31,-0.17 1.13,-0.17 h 0.51 a 6.81,6.81 0 0 1 2.88,0.4 2.51,2.51 0 0 1 1.14,1.37 h 0.19 l -0.18,-2.15 h -8.12 v 0.15 a 0.74,0.74 0 0 1 0.57,0.39 2.55,2.55 0 0 1 0.19,1.17 v 8.3199999 a 2.54,2.54 0 0 1 -0.2,1.12 0.7,0.7 0 0 1 -0.57,0.39 z"
     id="path44" />
  <path
     class="cls-2"
     d="m 94.579999,16.790334 v -0.32 a 0.62,0.62 0 0 0 0.58,-0.34 2.56,2.56 0 0 0 0.17,-1.11 V 6.7003341 a 2.58,2.58 0 0 0 -0.17,-1.13 0.63,0.63 0 0 0 -0.58,-0.34 v -0.32 l 2.69,-0.13 h 1 0.56 a 6.84,6.84 0 0 1 3.810001,0.94 2.84,2.84 0 0 1 1.4,2.45 2.55,2.55 0 0 1 -0.88,1.9999999 4.66,4.66 0 0 1 -2.41,1.1 28,28 0 0 0 1.77,4.16 8.48,8.48 0 0 0 1.8,2.43 v 0.31 a 8,8 0 0 1 -3.12,-2.47 14.71,14.71 0 0 1 -2.320001,-4.34 h -0.76 -1.05 v 0 3.71 a 2.48,2.48 0 0 0 0.18,1.11 0.6,0.6 0 0 0 0.57,0.34 v 0.32 z m 2.44,-6 0.52,0.07 h 0.71 a 5.2,5.2 0 0 0 3.000001,-0.69 2.37,2.37 0 0 0 1,-2.0999999 2.75,2.75 0 0 0 -0.86,-2.16 3.57,3.57 0 0 0 -2.440001,-0.76 2.65,2.65 0 0 0 -1.48,0.29 1.21,1.21 0 0 0 -0.41,1.08 z"
     id="path46" />
  <path
     class="cls-2"
     d="m 104.41,18.270334 h -0.12 a 8,8 0 0 1 -3.16,-2.5 14.82,14.82 0 0 1 -2.310001,-4.3 h -0.7 -1 v 3.62 a 2.45,2.45 0 0 0 0.16,1.07 0.54,0.54 0 0 0 0.51,0.29 h 0.08 v 0.48 h -3.37 v -0.48 h 0.09 a 0.53,0.53 0 0 0 0.5,-0.29 2.51,2.51 0 0 0 0.17,-1.07 V 6.7003341 a 2.52,2.52 0 0 0 -0.17,-1.09 0.56,0.56 0 0 0 -0.51,-0.3 h -0.08 v -0.48 l 2.77,-0.14 h 1 0.57 a 7,7 0 0 1 3.860001,1 2.92,2.92 0 0 1 1.43,2.48 2.69,2.69 0 0 1 -0.91,1.9999999 4.81,4.81 0 0 1 -2.36,1.1 29,29 0 0 0 1.74,4.05 8.63,8.63 0 0 0 1.78,2.41 v 0 z m -5.530001,-7 h 0.06 v 0.06 a 15,15 0 0 0 2.300001,4.31 8.06,8.06 0 0 0 3,2.39 v -0.17 a 8.93,8.93 0 0 1 -1.79,-2.43 30.43,30.43 0 0 1 -1.78,-4.17 v -0.1 h 0.1 a 4.62,4.62 0 0 0 2.37,-1.07 2.53,2.53 0 0 0 0.85,-1.8899999 2.76,2.76 0 0 0 -1.38,-2.41 6.77,6.77 0 0 0 -3.760001,-0.92 h -0.56 -1 l -2.6,0.13 v 0.17 a 0.76,0.76 0 0 1 0.57,0.39 2.73,2.73 0 0 1 0.18,1.17 v 8.3199999 a 2.71,2.71 0 0 1 -0.16,1.12 0.71,0.71 0 0 1 -0.57,0.39 v 0.14 h 3 v -0.14 a 0.71,0.71 0 0 1 -0.57,-0.38 2.56,2.56 0 0 1 -0.19,-1.16 v -3.8 h 0.14 c 0.46,0 0.82,0 1.05,0 h 0.76 z m -0.6,-0.3 c -0.29,0 -0.53,0 -0.72,0 a 2.62,2.62 0 0 1 -0.53,-0.07 h -0.07 V 6.5503341 a 1.29,1.29 0 0 1 0.45,-1.15 2.71,2.71 0 0 1 1.53,-0.31 3.62,3.62 0 0 1 2.500001,0.79 2.82,2.82 0 0 1 0.89,2.22 2.48,2.48 0 0 1 -1,2.1699999 5.29,5.29 0 0 1 -3.050001,0.7 z m -1.14,-0.25 a 2.62,2.62 0 0 0 0.43,0.06 h 0.71 a 5.21,5.21 0 0 0 2.940001,-0.67 2.32,2.32 0 0 0 0.93,-1.9999999 2.66,2.66 0 0 0 -0.83,-2.09 3.5,3.5 0 0 0 -2.380001,-0.74 2.69,2.69 0 0 0 -1.43,0.27 1.15,1.15 0 0 0 -0.37,1 z"
     id="path48" />
  <path
     class="cls-2"
     d="m 105.89,15.510334 0.65,-2.28 0.36,0.06 a 4.67,4.67 0 0 0 1.23,2.43 3.06,3.06 0 0 0 2.16,0.85 2.61,2.61 0 0 0 1.84,-0.64 2.14,2.14 0 0 0 0.7,-1.66 2.17,2.17 0 0 0 -0.56,-1.57 7,7 0 0 0 -2.34,-1.31 l -0.45,-0.17 a 6.37,6.37 0 0 1 -2.2,-1.2599999 3,3 0 0 1 -0.64,-1 2.78,2.78 0 0 1 -0.22,-1.11 3,3 0 0 1 1,-2.3 3.68,3.68 0 0 1 2.55,-0.92 5.4,5.4 0 0 1 1.74,0.3 8.42,8.42 0 0 1 1.83,0.87 l -0.53,2.05 -0.33,-0.07 a 3.87,3.87 0 0 0 -1.09,-1.94 2.52,2.52 0 0 0 -1.78,-0.7 2.36,2.36 0 0 0 -1.63,0.54 1.76,1.76 0 0 0 -0.61,1.41 1.82,1.82 0 0 0 0.51,1.32 6.33,6.33 0 0 0 2,1.15 l 0.47,0.19 a 9.26,9.26 0 0 1 2.73,1.4199999 2.8,2.8 0 0 1 0.67,1 3.38,3.38 0 0 1 0.22,1.27 3.28,3.28 0 0 1 -1.13,2.57 4.16,4.16 0 0 1 -2.88,1 6.63,6.63 0 0 1 -2.26,-0.39 6.36,6.36 0 0 1 -2.01,-1.11 z"
     id="path50" />
  <path
     class="cls-2"
     d="m 110.11,17.170334 a 6.57,6.57 0 0 1 -2.29,-0.4 6.18,6.18 0 0 1 -2,-1.16 h -0.05 l 0.68,-2.41 0.5,0.09 v 0 a 4.49,4.49 0 0 0 1.21,2.38 2.91,2.91 0 0 0 2.09,0.83 2.55,2.55 0 0 0 1.78,-0.62 2,2 0 0 0 0.67,-1.59 2.16,2.16 0 0 0 -0.53,-1.51 6.89,6.89 0 0 0 -2.32,-1.29 l -0.45,-0.17 a 6.41,6.41 0 0 1 -2.27,-1.28 3.38,3.38 0 0 1 -0.67,-0.9999999 3.18,3.18 0 0 1 -0.18,-1.17 3,3 0 0 1 1.05,-2.36 3.74,3.74 0 0 1 2.61,-0.94 5.9,5.9 0 0 1 1.77,0.29 8.9,8.9 0 0 1 1.85,0.89 h 0.05 v 0.06 l -0.55,2.13 -0.46,-0.09 v -0.06 a 3.81,3.81 0 0 0 -1.05,-1.9 2.52,2.52 0 0 0 -1.73,-0.67 2.34,2.34 0 0 0 -1.58,0.51 1.86,1.86 0 0 0 -0.09,2.61 6.59,6.59 0 0 0 2,1.13 l 0.47,0.19 a 9.35,9.35 0 0 1 2.66,1.5099999 2.75,2.75 0 0 1 0.69,1 3.54,3.54 0 0 1 0.23,1.3 3.39,3.39 0 0 1 -1.16,2.63 4.23,4.23 0 0 1 -2.93,1.07 z m -4.12,-1.66 a 6.17,6.17 0 0 0 1.89,1.09 6.46,6.46 0 0 0 2.23,0.39 4.06,4.06 0 0 0 2.82,-1 3.22,3.22 0 0 0 1.1,-2.5 3.43,3.43 0 0 0 -0.21,-1.24 3,3 0 0 0 -0.65,-1 9.21,9.21 0 0 0 -2.66,-1.3999999 l -0.46,-0.2 a 6.22,6.22 0 0 1 -2.06,-1.17 1.9,1.9 0 0 1 -0.54,-1.38 1.86,1.86 0 0 1 0.64,-1.48 2.48,2.48 0 0 1 1.69,-0.56 2.63,2.63 0 0 1 1.84,0.72 4,4 0 0 1 1.1,1.94 h 0.19 l 0.5,-1.9 a 8.64,8.64 0 0 0 -1.75,-0.83 5.64,5.64 0 0 0 -1.72,-0.29 3.54,3.54 0 0 0 -2.49,0.9 2.87,2.87 0 0 0 -1,2.23 2.81,2.81 0 0 0 0.21,1.08 3.17,3.17 0 0 0 0.62,0.95 6.31,6.31 0 0 0 2.23,1.3099999 l 0.45,0.18 a 7.07,7.07 0 0 1 2.38,1.33 2.34,2.34 0 0 1 0.58,1.63 2.24,2.24 0 0 1 -0.73,1.72 2.75,2.75 0 0 1 -1.9,0.67 3.13,3.13 0 0 1 -2.22,-0.88 4.69,4.69 0 0 1 -1.24,-2.41 h -0.23 z"
     id="path52" />
  <path
     class="cls-2"
     d="m 116.19,16.790334 v -0.31 a 0.66,0.66 0 0 0 0.59,-0.36 2.64,2.64 0 0 0 0.17,-1.1 V 6.7003341 a 2.56,2.56 0 0 0 -0.18,-1.12 0.63,0.63 0 0 0 -0.58,-0.35 v -0.32 h 3.23 v 0.32 a 0.63,0.63 0 0 0 -0.58,0.34 2.55,2.55 0 0 0 -0.18,1.13 v 8.3199999 a 2.48,2.48 0 0 0 0.18,1.11 0.62,0.62 0 0 0 0.58,0.34 v 0.32 z"
     id="path54" />
  <path
     class="cls-2"
     d="m 119.51,16.870334 h -3.41 v -0.47 h 0.09 a 0.55,0.55 0 0 0 0.51,-0.31 2.46,2.46 0 0 0 0.16,-1.06 V 6.7003341 a 2.53,2.53 0 0 0 -0.17,-1.08 0.53,0.53 0 0 0 -0.5,-0.31 h -0.09 v -0.49 h 3.41 v 0.49 h -0.09 a 0.55,0.55 0 0 0 -0.5,0.3 2.56,2.56 0 0 0 -0.17,1.09 v 8.3199999 a 2.42,2.42 0 0 0 0.17,1.07 0.52,0.52 0 0 0 0.5,0.29 h 0.09 z m -3.23,-0.17 h 3.05 v -0.15 a 0.71,0.71 0 0 1 -0.57,-0.38 2.65,2.65 0 0 1 -0.18,-1.15 V 6.7003341 a 2.76,2.76 0 0 1 0.18,-1.17 0.74,0.74 0 0 1 0.57,-0.39 v -0.14 h -3.05 v 0.17 a 0.73,0.73 0 0 1 0.57,0.4 2.56,2.56 0 0 1 0.19,1.16 v 8.3199999 a 2.63,2.63 0 0 1 -0.18,1.14 0.75,0.75 0 0 1 -0.58,0.4 z"
     id="path56" />
  <path
     class="cls-2"
     d="m 124.45,16.790334 v -0.32 a 0.61,0.61 0 0 0 0.57,-0.35 2.46,2.46 0 0 0 0.18,-1.1 V 6.0203341 a 0.62,0.62 0 0 0 -0.09,-0.39 q -0.08,-0.09 -0.36,-0.09 a 4.11,4.11 0 0 0 -2.1,0.44 3.89,3.89 0 0 0 -1.37,1.48 l -0.37,-0.16 0.63,-2.39 h 9 l 0.63,2.39 -0.36,0.16 a 4,4 0 0 0 -1.34,-1.54 4.21,4.21 0 0 0 -2.09,-0.43 c -0.2,0 -0.32,0 -0.38,0.1 a 0.57,0.57 0 0 0 -0.09,0.38 v 8.9999999 a 2.48,2.48 0 0 0 0.18,1.11 0.64,0.64 0 0 0 0.59,0.34 v 0.32 z"
     id="path58" />
  <path
     class="cls-2"
     d="m 127.79,16.870334 h -3.43 v -0.48 h 0.08 a 0.51,0.51 0 0 0 0.5,-0.3 2.43,2.43 0 0 0 0.17,-1.06 V 6.0303341 c 0,-0.23 0,-0.31 -0.06,-0.33 -0.06,-0.02 -0.08,-0.06 -0.3,-0.06 a 4.09,4.09 0 0 0 -2.06,0.42 4,4 0 0 0 -1.31,1.5 v 0.07 l -0.51,-0.22 0.66,-2.53 h 9.11 l 0.66,2.53 -0.5,0.22 v -0.07 a 4,4 0 0 0 -1.3,-1.5 4.07,4.07 0 0 0 -2,-0.42 c -0.22,0 -0.29,0 -0.32,0.07 -0.03,0.07 -0.06,0.1 -0.06,0.32 v 8.9999999 a 2.48,2.48 0 0 0 0.17,1.07 0.55,0.55 0 0 0 0.51,0.29 h 0.09 z m -3.25,-0.17 h 3.07 v -0.14 a 0.71,0.71 0 0 1 -0.58,-0.39 2.49,2.49 0 0 1 -0.2,-1.15 V 6.0203341 a 0.69,0.69 0 0 1 0.11,-0.44 0.58,0.58 0 0 1 0.45,-0.13 4.14,4.14 0 0 1 2.13,0.45 4,4 0 0 1 1.34,1.49 l 0.21,-0.09 -0.59,-2.25 h -8.83 l -0.59,2.25 0.22,0.09 a 4,4 0 0 1 1.33,-1.49 4.22,4.22 0 0 1 2.15,-0.45 c 0.22,0 0.36,0 0.43,0.13 a 0.68,0.68 0 0 1 0.1,0.44 v 8.9999999 a 2.63,2.63 0 0 1 -0.18,1.14 0.7,0.7 0 0 1 -0.57,0.39 z"
     id="path60" />
  <path
     class="cls-2"
     d="m 131.64,16.790334 v -0.32 a 2.11,2.11 0 0 0 1,-0.78 7.66,7.66 0 0 0 0.85,-1.94 l 3,-9.0999999 h 1 l 3.28,10.1199999 a 5.22,5.22 0 0 0 0.55,1.28 0.78,0.78 0 0 0 0.58,0.42 v 0.32 h -3.22 v -0.32 a 0.81,0.81 0 0 0 0.42,-0.22 0.57,0.57 0 0 0 0.16,-0.39 2.61,2.61 0 0 0 -0.14,-0.61 l -0.07,-0.2 -0.65,-2.12 h -4.06 l -0.51,1.59 a 2.78,2.78 0 0 0 -0.11,0.46 2.87,2.87 0 0 0 0,0.39 1.2,1.2 0 0 0 0.21,0.74 0.93,0.93 0 0 0 0.6,0.36 v 0.32 z m 2.95,-4.44 h 3.69 L 136.5,6.4803341 Z m 1.52,-10.9999999 2.33,2.41 h -0.54 l -2.62,-1.65 a 1.37,1.37 0 0 1 -0.37,-0.33 0.56,0.56 0 0 1 0.45,-0.91000002 0.63,0.63 0 0 1 0.34,0.1 2.35,2.35 0 0 1 0.41,0.38000002 z"
     id="path62" />
  <path
     class="cls-2"
     d="m 142.04,16.870334 h -3.39 v -0.47 h 0.06 a 0.7,0.7 0 0 0 0.37,-0.2 0.45,0.45 0 0 0 0.14,-0.33 2.63,2.63 0 0 0 -0.14,-0.59 1.67,1.67 0 0 0 -0.06,-0.2 l -0.63,-2.05 h -3.93 l -0.5,1.52 c 0,0.16 -0.08,0.31 -0.1,0.45 a 1.82,1.82 0 0 0 0,0.38 1.18,1.18 0 0 0 0.19,0.69 0.86,0.86 0 0 0 0.55,0.33 h 0.07 v 0.47 h -3.08 v -0.46 h 0.06 a 2.06,2.06 0 0 0 1,-0.75 7.22,7.22 0 0 0 0.83,-1.92 l 3,-9.1499999 h 1.17 v 0.06 l 3.28,10.1199999 a 6.15,6.15 0 0 0 0.54,1.26 c 0.17,0.24 0.34,0.37 0.51,0.37 h 0.08 z m -3.22,-0.17 h 3 v -0.15 a 0.93,0.93 0 0 1 -0.56,-0.45 5.17,5.17 0 0 1 -0.56,-1.3 L 137.43,4.7403341 h -0.91 l -3,8.9999999 a 7.47,7.47 0 0 1 -0.86,2 2.15,2.15 0 0 1 -1,0.79 v 0.17 h 2.72 v -0.16 a 1,1 0 0 1 -0.58,-0.38 1.3,1.3 0 0 1 -0.22,-0.79 3.17,3.17 0 0 1 0,-0.41 c 0,-0.15 0.06,-0.3 0.11,-0.47 l 0.54,-1.65 h 4.19 l 0.67,2.18 c 0,0.05 0,0.12 0.06,0.2 a 2.38,2.38 0 0 1 0.14,0.64 0.63,0.63 0 0 1 -0.18,0.45 0.77,0.77 0 0 1 -0.39,0.23 z m -0.42,-4.26 h -3.93 v -0.12 l 2,-6.1299999 0.08,0.27 z m -3.69,-0.18 h 3.45 L 136.5,6.7803341 Z m 3.93,-8.4099999 h -0.79 l -2.66,-1.68 a 1.8,1.8 0 0 1 -0.4,-0.36 0.69,0.69 0 0 1 -0.14,-0.4 0.64,0.64 0 0 1 0.19,-0.46000002 0.7,0.7 0 0 1 0.86,-0.08 2.31,2.31 0 0 1 0.47,0.40000002 z m -0.72,-0.18 h 0.36 l -2.18,-2.25 a 2.79,2.79 0 0 0 -0.43,-0.38 0.67,0.67 0 0 0 -0.3,-0.08 0.48,0.48 0 0 0 -0.35,0.13000002 0.45,0.45 0 0 0 -0.14,0.34 0.47,0.47 0 0 0 0.11,0.3 1.22,1.22 0 0 0 0.35,0.31 z"
     id="path64" />
  <path
     class="cls-2"
     d="m 148.84,16.790334 v -0.32 a 0.63,0.63 0 0 0 0.58,-0.34 2.73,2.73 0 0 0 0.17,-1.11 V 6.7003341 a 2.74,2.74 0 0 0 -0.17,-1.13 0.65,0.65 0 0 0 -0.58,-0.34 v -0.32 l 2.64,-0.08 h 1.33 a 12.42,12.42 0 0 1 2.12,0.15 5.6,5.6 0 0 1 1.51,0.51 5.21,5.21 0 0 1 2.25,2.21 6.73,6.73 0 0 1 0.83,3.3199999 5.49,5.49 0 0 1 -1.67,4.25 6.58,6.58 0 0 1 -4.63,1.53 z m 2.44,-1.57 a 1,1 0 0 0 0.28,0.85 2.21,2.21 0 0 0 1.25,0.23 5,5 0 0 0 3.78,-1.21 c 0.74,-0.81 1.1,-2.19 1.1,-4.14 a 7.09,7.09 0 0 0 -1,-4.2299999 3.73,3.73 0 0 0 -3.17,-1.39 3.78,3.78 0 0 0 -1.78,0.27 1.23,1.23 0 0 0 -0.42,1.1 z"
     id="path66" />
  <path
     class="cls-2"
     d="m 153.22,16.870334 h -4.47 v -0.48 h 0.08 a 0.54,0.54 0 0 0 0.51,-0.29 2.54,2.54 0 0 0 0.16,-1.07 V 6.7003341 a 2.56,2.56 0 0 0 -0.16,-1.09 0.57,0.57 0 0 0 -0.51,-0.3 h -0.08 v -0.48 l 2.72,-0.09 h 1.34 a 11.49,11.49 0 0 1 2.13,0.16 5.37,5.37 0 0 1 1.54,0.51 5.43,5.43 0 0 1 2.29,2.24 6.93,6.93 0 0 1 0.84,3.3699999 5.56,5.56 0 0 1 -1.7,4.31 6.7,6.7 0 0 1 -4.69,1.54 z m -4.3,-0.17 h 4.3 a 6.53,6.53 0 0 0 4.57,-1.53 5.4,5.4 0 0 0 1.64,-4.18 6.57,6.57 0 0 0 -0.82,-3.2799999 5.27,5.27 0 0 0 -2.21,-2.18 5.67,5.67 0 0 0 -1.49,-0.49 12,12 0 0 0 -2.1,-0.16 h -1.33 l -2.56,0.08 v 0.21 a 0.74,0.74 0 0 1 0.57,0.39 2.55,2.55 0 0 1 0.19,1.17 v 8.3199999 a 2.54,2.54 0 0 1 -0.19,1.15 0.7,0.7 0 0 1 -0.57,0.39 z m 3.89,-0.32 a 2.35,2.35 0 0 1 -1.31,-0.24 1.13,1.13 0 0 1 -0.31,-0.92 V 6.7003341 a 1.29,1.29 0 0 1 0.46,-1.17 4.79,4.79 0 0 1 5.07,1.14 7.18,7.18 0 0 1 1.06,4.2799999 c 0,2 -0.38,3.38 -1.12,4.2 a 5.05,5.05 0 0 1 -3.85,1.23 z m 0.67,-10.9999999 a 3.7,3.7 0 0 0 -1.73,0.26 1.13,1.13 0 0 0 -0.39,1 v 8.5199999 a 1,1 0 0 0 0.25,0.78 2.12,2.12 0 0 0 1.2,0.21 4.9,4.9 0 0 0 3.72,-1.18 6.12,6.12 0 0 0 1.07,-4.08 7,7 0 0 0 -1,-4.1699999 3.65,3.65 0 0 0 -3.12,-1.3 z"
     id="path68" />
  <path
     class="cls-2"
     d="m 161.63,16.790334 v -0.32 a 0.62,0.62 0 0 0 0.58,-0.34 2.54,2.54 0 0 0 0.18,-1.11 V 6.7003341 a 2.55,2.55 0 0 0 -0.18,-1.13 0.63,0.63 0 0 0 -0.58,-0.34 v -0.32 h 8.29 l 0.2,2.31 -0.35,0.05 a 2.46,2.46 0 0 0 -1.09,-1.39 6.88,6.88 0 0 0 -2.85,-0.39 h -0.5 a 2.17,2.17 0 0 0 -1.07,0.15 c -0.13,0.1 -0.19,0.36 -0.19,0.78 v 3.38 h 1.72 a 5.21,5.21 0 0 0 1.9,-0.25 1.46,1.46 0 0 0 0.77,-0.89 h 0.27 v 2.8199999 h -0.29 a 1.47,1.47 0 0 0 -0.65,-0.87 4.24,4.24 0 0 0 -1.77,-0.24 h -2 v 4.7 c 0,0.53 0.09,0.85 0.26,1 a 2.94,2.94 0 0 0 1.34,0.18 c 0.87,0 1.49,0 1.86,0 a 5,5 0 0 0 1,-0.19 3.18,3.18 0 0 0 1,-0.6 6.83,6.83 0 0 0 1,-1.19 l 0.34,0.19 -0.69,2.41 z"
     id="path70" />
  <path
     class="cls-2"
     d="m 170.28,16.870334 h -8.75 v -0.48 h 0.09 a 0.52,0.52 0 0 0 0.5,-0.29 2.51,2.51 0 0 0 0.17,-1.07 V 6.7003341 a 2.52,2.52 0 0 0 -0.17,-1.09 0.54,0.54 0 0 0 -0.5,-0.3 h -0.09 v -0.49 h 8.46 l 0.21,2.48 -0.5,0.07 v -0.07 a 2.31,2.31 0 0 0 -1.06,-1.34 6.82,6.82 0 0 0 -2.8,-0.38 h -0.5 c -0.75,0 -1,0.08 -1,0.13 0,0.05 -0.15,0.2 -0.15,0.71 v 3.29 h 1.63 a 5,5 0 0 0 1.86,-0.24 1.39,1.39 0 0 0 0.73,-0.84 v -0.06 h 0.42 v 2.9999999 h -0.44 v -0.06 a 1.41,1.41 0 0 0 -0.61,-0.82 4.27,4.27 0 0 0 -1.73,-0.23 h -1.86 v 4.61 c 0,0.62 0.12,0.83 0.22,0.9 a 2.7,2.7 0 0 0 1.29,0.16 c 0.86,0 1.49,0 1.85,0 a 5.49,5.49 0 0 0 1,-0.18 3,3 0 0 0 1,-0.59 6.26,6.26 0 0 0 1,-1.17 v -0.06 l 0.48,0.26 v 0.06 z m -8.57,-0.17 h 8.44 l 0.65,-2.28 -0.22,-0.11 a 7.49,7.49 0 0 1 -1,1.14 3.1,3.1 0 0 1 -1.06,0.61 4.35,4.35 0 0 1 -1,0.19 c -0.37,0 -1,0.06 -1.87,0.06 a 2.79,2.79 0 0 1 -1.39,-0.2 c -0.2,-0.14 -0.3,-0.48 -0.3,-1 v -4.83 h 2 a 4.39,4.39 0 0 1 1.81,0.25 1.57,1.57 0 0 1 0.67,0.86 h 0.14 V 8.7403341 h -0.12 a 1.55,1.55 0 0 1 -0.79,0.89 5.2,5.2 0 0 1 -1.94,0.26 h -1.75 v -3.47 c 0,-0.46 0.07,-0.73 0.22,-0.85 0.15,-0.12 0.3,-0.17 1.13,-0.17 h 0.5 a 6.86,6.86 0 0 1 2.89,0.4 2.56,2.56 0 0 1 1.11,1.37 h 0.19 l -0.18,-2.15 h -8.12 v 0.15 a 0.74,0.74 0 0 1 0.57,0.39 2.7,2.7 0 0 1 0.19,1.17 v 8.3199999 a 2.69,2.69 0 0 1 -0.2,1.12 0.7,0.7 0 0 1 -0.57,0.39 z"
     id="path72" />
  <path
     class="cls-2"
     d="m 172.66,16.790334 v -0.31 a 0.65,0.65 0 0 0 0.62,-0.31 2.49,2.49 0 0 0 0.17,-1.1 V 6.7003341 a 2.75,2.75 0 0 0 -0.17,-1.12 0.64,0.64 0 0 0 -0.58,-0.35 v -0.32 h 3.22 v 0.32 a 0.65,0.65 0 0 0 -0.58,0.34 2.74,2.74 0 0 0 -0.17,1.13 v 8.3699999 q 0,0.78 0.24,1 a 2.15,2.15 0 0 0 1.11,0.18 10.85,10.85 0 0 0 1.9,-0.12 3.71,3.71 0 0 0 1.09,-0.39 2.87,2.87 0 0 0 0.67,-0.56 8.86,8.86 0 0 0 0.78,-1 l 0.36,0.12 -0.61,2.49 z"
     id="path74" />
  <path
     class="cls-2"
     d="m 180.74,16.870334 h -8.17 v -0.47 h 0.08 a 0.55,0.55 0 0 0 0.51,-0.31 2.46,2.46 0 0 0 0.16,-1.06 V 6.7003341 a 2.57,2.57 0 0 0 -0.16,-1.08 0.56,0.56 0 0 0 -0.51,-0.31 h -0.08 v -0.49 h 3.4 v 0.49 h -0.08 a 0.57,0.57 0 0 0 -0.51,0.3 2.59,2.59 0 0 0 -0.16,1.09 v 8.3699999 c 0,0.6 0.11,0.81 0.2,0.88 a 1.92,1.92 0 0 0 1.06,0.17 10.58,10.58 0 0 0 1.88,-0.12 3.26,3.26 0 0 0 1.06,-0.38 2.9,2.9 0 0 0 0.66,-0.54 8.73,8.73 0 0 0 0.76,-1 v -0.06 l 0.5,0.17 z m -8,-0.17 h 7.86 l 0.57,-2.34 -0.22,-0.08 a 10.72,10.72 0 0 1 -0.75,0.93 3,3 0 0 1 -0.69,0.57 3.81,3.81 0 0 1 -1.12,0.4 10.9,10.9 0 0 1 -1.91,0.12 2.21,2.21 0 0 1 -1.16,-0.2 c -0.19,-0.14 -0.28,-0.48 -0.28,-1 V 6.7003341 a 2.58,2.58 0 0 1 0.19,-1.17 0.74,0.74 0 0 1 0.57,-0.39 v -0.14 h -3.06 v 0.17 a 0.73,0.73 0 0 1 0.57,0.4 2.56,2.56 0 0 1 0.19,1.16 v 8.3199999 a 2.63,2.63 0 0 1 -0.22,1.12 0.73,0.73 0 0 1 -0.58,0.4 z"
     id="path76" />
  <path
     class="cls-2"
     d="m 182.96,16.790334 v -0.31 a 0.66,0.66 0 0 0 0.59,-0.36 2.64,2.64 0 0 0 0.17,-1.1 V 6.7003341 a 2.56,2.56 0 0 0 -0.18,-1.12 0.61,0.61 0 0 0 -0.58,-0.35 v -0.32 h 3.23 v 0.32 a 0.63,0.63 0 0 0 -0.58,0.34 2.74,2.74 0 0 0 -0.17,1.13 v 8.3699999 q 0,0.78 0.24,1 a 2.15,2.15 0 0 0 1.11,0.18 10.64,10.64 0 0 0 1.89,-0.12 3.77,3.77 0 0 0 1.1,-0.39 3.09,3.09 0 0 0 0.67,-0.56 7.83,7.83 0 0 0 0.77,-1 l 0.37,0.12 -0.61,2.49 z"
     id="path78" />
  <path
     class="cls-2"
     d="m 191.04,16.870334 h -8.16 v -0.47 h 0.08 a 0.55,0.55 0 0 0 0.51,-0.31 2.46,2.46 0 0 0 0.16,-1.06 V 6.7003341 a 2.57,2.57 0 0 0 -0.16,-1.08 0.56,0.56 0 0 0 -0.51,-0.31 h -0.08 v -0.49 h 3.4 v 0.49 h -0.08 a 0.56,0.56 0 0 0 -0.51,0.3 2.56,2.56 0 0 0 -0.17,1.09 v 8.3699999 c 0,0.6 0.12,0.81 0.21,0.88 0.09,0.07 0.36,0.17 1.06,0.17 a 10.58,10.58 0 0 0 1.88,-0.12 3.26,3.26 0 0 0 1.06,-0.38 2.68,2.68 0 0 0 0.65,-0.54 7.65,7.65 0 0 0 0.77,-1 v -0.06 l 0.5,0.17 z m -8,-0.17 h 7.86 l 0.57,-2.34 -0.22,-0.08 a 10.72,10.72 0 0 1 -0.75,0.93 3.28,3.28 0 0 1 -0.69,0.57 3.91,3.91 0 0 1 -1.12,0.4 11,11 0 0 1 -1.91,0.12 2.16,2.16 0 0 1 -1.16,-0.2 c -0.19,-0.14 -0.28,-0.48 -0.28,-1 V 6.7003341 a 2.58,2.58 0 0 1 0.19,-1.17 0.74,0.74 0 0 1 0.56,-0.39 v -0.14 h -3 v 0.17 a 0.73,0.73 0 0 1 0.57,0.4 2.56,2.56 0 0 1 0.19,1.16 v 8.3199999 a 2.63,2.63 0 0 1 -0.18,1.14 0.73,0.73 0 0 1 -0.58,0.4 z"
     id="path80" />
  <path
     class="cls-2"
     d="m 192.66,16.790334 v -0.32 a 2.11,2.11 0 0 0 1,-0.78 7.66,7.66 0 0 0 0.85,-1.94 l 3,-9.0999999 h 1 l 3.28,10.1199999 a 5.22,5.22 0 0 0 0.55,1.28 0.78,0.78 0 0 0 0.58,0.42 v 0.32 h -3.22 v -0.32 a 0.81,0.81 0 0 0 0.42,-0.22 0.57,0.57 0 0 0 0.16,-0.39 2.61,2.61 0 0 0 -0.14,-0.61 l -0.07,-0.2 -0.65,-2.12 h -4.06 l -0.51,1.59 a 2.78,2.78 0 0 0 -0.11,0.46 2.87,2.87 0 0 0 0,0.39 1.2,1.2 0 0 0 0.21,0.74 0.93,0.93 0 0 0 0.6,0.36 v 0.32 z m 3,-4.44 h 3.62 L 197.5,6.4803341 Z"
     id="path82" />
  <path
     class="cls-2"
     d="m 203.06,16.870334 h -3.39 v -0.47 h 0.06 a 0.7,0.7 0 0 0 0.37,-0.2 0.45,0.45 0 0 0 0.14,-0.33 2.63,2.63 0 0 0 -0.14,-0.59 1.67,1.67 0 0 0 -0.06,-0.2 l -0.63,-2.05 h -3.93 l -0.5,1.52 c 0,0.16 -0.08,0.31 -0.1,0.45 a 1.82,1.82 0 0 0 0,0.38 1.18,1.18 0 0 0 0.19,0.69 0.86,0.86 0 0 0 0.55,0.33 h 0.07 v 0.47 h -3.08 v -0.46 h 0.06 a 2.06,2.06 0 0 0 1,-0.75 7.22,7.22 0 0 0 0.83,-1.92 l 3,-9.1499999 h 1.17 v 0.06 l 3.29,10.1199999 a 5.2,5.2 0 0 0 0.54,1.26 c 0.16,0.24 0.33,0.37 0.5,0.37 h 0.08 z m -3.22,-0.17 h 3 v -0.15 a 0.93,0.93 0 0 1 -0.56,-0.45 5.57,5.57 0 0 1 -0.56,-1.3 L 198.48,4.7403341 h -0.91 l -2.95,8.9999999 a 7.47,7.47 0 0 1 -0.86,2 2.15,2.15 0 0 1 -1,0.79 v 0.17 h 2.72 v -0.16 a 1,1 0 0 1 -0.58,-0.38 1.3,1.3 0 0 1 -0.22,-0.79 3.17,3.17 0 0 1 0,-0.41 c 0,-0.15 0.07,-0.3 0.11,-0.47 l 0.54,-1.65 h 4.19 l 0.67,2.18 c 0,0.05 0,0.12 0.06,0.2 a 2.38,2.38 0 0 1 0.14,0.64 0.63,0.63 0 0 1 -0.18,0.45 0.77,0.77 0 0 1 -0.39,0.23 z m -0.42,-4.26 h -3.93 v -0.12 l 2,-6.1299999 0.08,0.27 z m -3.69,-0.18 h 3.45 l -1.66,-5.4799999 z"
     id="path84" />
  <path
     class="cls-2"
     d="m 219.9,14.110334 a 6.66,6.66 0 0 1 -2.09,2.23 5.08,5.08 0 0 1 -2.7,0.71 4.9,4.9 0 0 1 -3.84,-1.6 6.1,6.1 0 0 1 -1.45,-4.28 8,8 0 0 1 0.56,-2.9999999 6.16,6.16 0 0 1 1.62,-2.34 4.07,4.07 0 0 1 1.48,-0.86 5.65,5.65 0 0 1 1.85,-0.31 6,6 0 0 1 1.95,0.35 9.45,9.45 0 0 1 2.08,1.05 l -0.62,2 -0.37,-0.05 a 4.6,4.6 0 0 0 -1.32,-2.13 3.15,3.15 0 0 0 -2.08,-0.72 3,3 0 0 0 -2.55,1.38 6.33,6.33 0 0 0 -1,3.6999999 6.81,6.81 0 0 0 1.24,4.23 3.77,3.77 0 0 0 3.15,1.65 3.84,3.84 0 0 0 2,-0.55 5.62,5.62 0 0 0 1.73,-1.66 z"
     id="path86" />
  <path
     class="cls-2"
     d="m 215.11,17.170334 a 5,5 0 0 1 -3.91,-1.63 6.2,6.2 0 0 1 -1.46,-4.37 8.15,8.15 0 0 1 0.54,-2.9999999 6.38,6.38 0 0 1 1.65,-2.37 4.1,4.1 0 0 1 1.51,-0.88 5.81,5.81 0 0 1 3.86,0 9.63,9.63 0 0 1 2.1,1.06 h 0.06 l -0.65,2.19 -0.53,-0.1 v 0 a 4.39,4.39 0 0 0 -1.29,-2.08 3.06,3.06 0 0 0 -2,-0.71 2.93,2.93 0 0 0 -2.48,1.35 6.33,6.33 0 0 0 -0.95,3.6499999 6.8,6.8 0 0 0 1.22,4.18 3.71,3.71 0 0 0 3.08,1.61 3.9,3.9 0 0 0 2,-0.53 5.94,5.94 0 0 0 1.7,-1.64 l 0.05,-0.07 0.43,0.31 v 0.07 a 6.68,6.68 0 0 1 -2.11,2.25 5.11,5.11 0 0 1 -2.82,0.71 z m 0.22,-12.3999999 a 5.47,5.47 0 0 0 -1.82,0.3 4.15,4.15 0 0 0 -1.45,0.85 6.2,6.2 0 0 0 -1.6,2.3 8.07,8.07 0 0 0 -0.55,2.9999999 6,6 0 0 0 1.42,4.19 5.35,5.35 0 0 0 6.43,0.87 6.46,6.46 0 0 0 2,-2.12 l -0.16,-0.11 a 6.08,6.08 0 0 1 -1.7,1.61 4.05,4.05 0 0 1 -2.08,0.56 3.88,3.88 0 0 1 -3.22,-1.68 6.94,6.94 0 0 1 -1.26,-4.29 6.43,6.43 0 0 1 1,-3.7499999 3.08,3.08 0 0 1 2.62,-1.42 3.21,3.21 0 0 1 2.14,0.75 4.53,4.53 0 0 1 1.32,2.11 h 0.25 l 0.58,-1.86 a 9.46,9.46 0 0 0 -2,-1 6,6 0 0 0 -1.92,-0.34 z"
     id="path88" />
  <path
     class="cls-2"
     d="m 220.41,16.790334 v -0.32 a 2.09,2.09 0 0 0 1,-0.78 7.32,7.32 0 0 0 0.85,-1.94 l 3,-9.0999999 h 1 l 3.32,10.1199999 a 4.86,4.86 0 0 0 0.55,1.28 0.78,0.78 0 0 0 0.57,0.42 v 0.32 h -3.21 v -0.32 a 0.78,0.78 0 0 0 0.41,-0.22 0.53,0.53 0 0 0 0.16,-0.39 2.61,2.61 0 0 0 -0.14,-0.61 c 0,-0.09 0,-0.15 -0.06,-0.2 l -0.65,-2.12 h -4.06 l -0.52,1.59 c 0,0.16 -0.08,0.31 -0.11,0.46 a 2.77,2.77 0 0 0 0,0.39 1.27,1.27 0 0 0 0.2,0.74 0.93,0.93 0 0 0 0.6,0.36 v 0.32 z m 2.94,-4.44 h 3.7 l -1.77,-5.8699999 z"
     id="path90" />
  <path
     class="cls-2"
     d="m 230.8,16.870334 h -3.39 v -0.47 h 0.07 a 0.74,0.74 0 0 0 0.37,-0.2 0.44,0.44 0 0 0 0.13,-0.33 2.43,2.43 0 0 0 -0.13,-0.59 l -0.07,-0.2 -0.63,-2.05 h -3.93 l -0.49,1.52 c -0.05,0.16 -0.08,0.31 -0.11,0.45 a 2.75,2.75 0 0 0 0,0.38 1.11,1.11 0 0 0 0.19,0.69 0.84,0.84 0 0 0 0.54,0.33 h 0.07 v 0.47 h -3.14 v -0.46 h 0.06 a 2,2 0 0 0 1,-0.75 7.51,7.51 0 0 0 0.84,-1.92 l 3,-9.1499999 h 1.16 v 0.06 l 3.29,10.1199999 a 5.63,5.63 0 0 0 0.54,1.26 c 0.16,0.24 0.33,0.37 0.51,0.37 h 0.08 z m -3.21,-0.17 h 3 v -0.15 a 0.94,0.94 0 0 1 -0.57,-0.45 5.57,5.57 0 0 1 -0.56,-1.3 L 226.28,4.7403341 h -1 l -3,8.9999999 a 7.42,7.42 0 0 1 -0.87,2 2.15,2.15 0 0 1 -1,0.79 v 0.17 h 2.73 v -0.16 a 1,1 0 0 1 -0.59,-0.38 1.37,1.37 0 0 1 -0.22,-0.79 2.1,2.1 0 0 1 0,-0.41 3.15,3.15 0 0 1 0.11,-0.47 l 0.54,-1.65 h 4.3 l 0.67,2.18 0.07,0.2 a 2.87,2.87 0 0 1 0.14,0.64 0.63,0.63 0 0 1 -0.18,0.45 0.81,0.81 0 0 1 -0.39,0.23 z m -0.42,-4.26 h -3.89 v -0.12 l 2,-6.1499999 0.08,0.27 z m -3.7,-0.18 h 3.46 l -1.65,-5.4799999 z"
     id="path92" />
  <path
     class="cls-2"
     d="m 232.28,16.790334 v -0.31 a 0.64,0.64 0 0 0 0.58,-0.36 2.49,2.49 0 0 0 0.17,-1.1 V 6.7003341 a 2.59,2.59 0 0 0 -0.17,-1.12 0.63,0.63 0 0 0 -0.58,-0.35 v -0.32 h 3.23 v 0.32 a 0.62,0.62 0 0 0 -0.58,0.34 2.55,2.55 0 0 0 -0.18,1.13 v 8.3699999 q 0,0.78 0.24,1 a 2.15,2.15 0 0 0 1.11,0.18 10.85,10.85 0 0 0 1.9,-0.12 3.71,3.71 0 0 0 1.09,-0.39 2.87,2.87 0 0 0 0.67,-0.56 8.86,8.86 0 0 0 0.78,-1 l 0.36,0.12 -0.62,2.49 z"
     id="path94" />
  <path
     class="cls-2"
     d="m 240.39,16.870334 h -8.17 v -0.47 h 0.06 a 0.54,0.54 0 0 0 0.51,-0.31 2.43,2.43 0 0 0 0.17,-1.06 V 6.7003341 a 2.53,2.53 0 0 0 -0.17,-1.08 0.55,0.55 0 0 0 -0.51,-0.31 h -0.08 v -0.49 h 3.4 v 0.49 h -0.08 a 0.57,0.57 0 0 0 -0.51,0.3 2.59,2.59 0 0 0 -0.16,1.09 v 8.3699999 c 0,0.6 0.11,0.81 0.2,0.88 a 1.92,1.92 0 0 0 1.06,0.17 10.58,10.58 0 0 0 1.88,-0.12 3.32,3.32 0 0 0 1.07,-0.38 3.12,3.12 0 0 0 0.65,-0.54 10,10 0 0 0 0.77,-1 v -0.06 l 0.5,0.17 z m -8,-0.17 h 7.89 l 0.58,-2.34 -0.23,-0.08 a 10.79,10.79 0 0 1 -0.74,0.93 3.31,3.31 0 0 1 -0.7,0.57 3.81,3.81 0 0 1 -1.12,0.4 10.9,10.9 0 0 1 -1.91,0.12 2.21,2.21 0 0 1 -1.16,-0.2 c -0.19,-0.14 -0.28,-0.48 -0.28,-1 V 6.7003341 a 2.58,2.58 0 0 1 0.19,-1.17 0.74,0.74 0 0 1 0.57,-0.39 v -0.14 h -3.05 v 0.17 a 0.75,0.75 0 0 1 0.57,0.4 2.74,2.74 0 0 1 0.18,1.16 v 8.3199999 a 2.63,2.63 0 0 1 -0.18,1.14 0.73,0.73 0 0 1 -0.57,0.4 z"
     id="path96" />
  <path
     class="cls-2"
     d="m 242,16.790334 v -0.32 a 2.11,2.11 0 0 0 1,-0.78 7.32,7.32 0 0 0 0.85,-1.94 l 3,-9.0999999 h 1 l 3.28,10.1199999 a 5.17,5.17 0 0 0 0.56,1.28 0.78,0.78 0 0 0 0.57,0.42 v 0.32 h -3.21 v -0.32 a 0.78,0.78 0 0 0 0.41,-0.22 0.53,0.53 0 0 0 0.16,-0.39 2.61,2.61 0 0 0 -0.14,-0.61 1.85,1.85 0 0 1 -0.06,-0.2 l -0.65,-2.12 h -4.06 l -0.43,1.59 a 4.35,4.35 0 0 0 -0.11,0.46 2.77,2.77 0 0 0 0,0.39 1.27,1.27 0 0 0 0.2,0.74 0.93,0.93 0 0 0 0.6,0.36 v 0.32 z m 2.95,-4.44 h 3.7 l -1.78,-5.8699999 z"
     id="path98" />
  <path
     class="cls-2"
     d="m 252.4,16.870334 h -3.39 v -0.47 h 0.07 a 0.74,0.74 0 0 0 0.37,-0.2 0.44,0.44 0 0 0 0.13,-0.33 2.43,2.43 0 0 0 -0.13,-0.59 l -0.07,-0.2 -0.63,-2.05 h -3.93 l -0.49,1.52 a 2.93,2.93 0 0 0 -0.11,0.45 2.75,2.75 0 0 0 0,0.38 1.18,1.18 0 0 0 0.18,0.69 0.89,0.89 0 0 0 0.55,0.33 h 0.07 v 0.47 h -3.07 v -0.46 h 0.06 a 2.08,2.08 0 0 0 1,-0.75 7.51,7.51 0 0 0 0.84,-1.92 l 3,-9.1499999 h 1.16 v 0.06 l 3.27,10.0999999 a 5.2,5.2 0 0 0 0.54,1.26 c 0.16,0.24 0.33,0.37 0.51,0.37 h 0.08 z m -3.21,-0.17 h 3 v -0.15 a 0.92,0.92 0 0 1 -0.57,-0.45 5.57,5.57 0 0 1 -0.56,-1.3 L 247.8,4.7403341 h -0.92 l -2.95,8.9999999 a 7.47,7.47 0 0 1 -0.86,2 2.15,2.15 0 0 1 -1,0.79 v 0.17 h 2.72 v -0.16 a 1,1 0 0 1 -0.51,-0.37 1.3,1.3 0 0 1 -0.22,-0.79 2.1,2.1 0 0 1 0,-0.41 3.15,3.15 0 0 1 0.11,-0.47 l 0.53,-1.65 h 4.19 l 0.67,2.18 0.07,0.2 a 2.87,2.87 0 0 1 0.14,0.64 0.63,0.63 0 0 1 -0.18,0.45 0.86,0.86 0 0 1 -0.39,0.23 z m -0.42,-4.26 h -3.94 v -0.12 l 2,-6.1299999 0.08,0.27 z m -3.7,-0.18 h 3.46 l -1.67,-5.4799999 z"
     id="path100" />
  <path
     class="cls-2"
     d="m 253.83,16.790334 v -0.32 a 0.63,0.63 0 0 0 0.58,-0.34 2.73,2.73 0 0 0 0.17,-1.11 V 6.7003341 a 2.74,2.74 0 0 0 -0.17,-1.13 0.65,0.65 0 0 0 -0.58,-0.34 v -0.32 l 2.59,-0.06 h 0.93 0.55 a 6.51,6.51 0 0 1 3.49,0.83 2.48,2.48 0 0 1 1.34,2.14 2.09,2.09 0 0 1 -0.77,1.62 5,5 0 0 1 -2.23,0.9999999 4.86,4.86 0 0 1 2.55,1.15 2.75,2.75 0 0 1 0.92,2.08 2.58,2.58 0 0 1 -1.27,2.32 7,7 0 0 1 -3.69,0.8 z m 2.45,-6.62 h 1 a 5.63,5.63 0 0 0 2.9,-0.5499999 2,2 0 0 0 0.86,-1.84 2.23,2.23 0 0 0 -0.79,-1.84 3.41,3.41 0 0 0 -2.23,-0.65 2.86,2.86 0 0 0 -1.45,0.25 c -0.23,0.16 -0.34,0.54 -0.34,1.12 z m 0,0.49 v 4.36 c 0,0.56 0.09,0.91 0.29,1 a 2.89,2.89 0 0 0 1.42,0.21 4.18,4.18 0 0 0 2.63,-0.68 2.55,2.55 0 0 0 0.85,-2.12 2.62,2.62 0 0 0 -0.82,-2.12 3.81,3.81 0 0 0 -2.5,-0.7 z"
     id="path102" />
  <path
     class="cls-2"
     d="m 258.21,16.870334 h -4.47 v -0.48 h 0.08 a 0.54,0.54 0 0 0 0.51,-0.29 2.54,2.54 0 0 0 0.16,-1.07 V 6.7003341 a 2.56,2.56 0 0 0 -0.16,-1.09 0.57,0.57 0 0 0 -0.51,-0.3 h -0.08 v -0.48 l 2.68,-0.07 h 0.93 0.55 a 6.54,6.54 0 0 1 3.53,0.85 2.55,2.55 0 0 1 1.39,2.21 2.16,2.16 0 0 1 -0.8,1.68 4.67,4.67 0 0 1 -1.91,0.9399999 4.88,4.88 0 0 1 2.2,1.12 2.84,2.84 0 0 1 1,2.14 2.67,2.67 0 0 1 -1.31,2.39 7.11,7.11 0 0 1 -3.79,0.78 z m -4.3,-0.17 h 4.3 a 6.93,6.93 0 0 0 3.64,-0.79 2.49,2.49 0 0 0 1.23,-2.24 2.7,2.7 0 0 0 -0.89,-2 4.82,4.82 0 0 0 -2.48,-1.15 l -0.41,-0.08 0.41,-0.1 a 5,5 0 0 0 2.2,-0.9999999 2,2 0 0 0 0.73,-1.55 2.4,2.4 0 0 0 -1.3,-2.06 6.44,6.44 0 0 0 -3.44,-0.83 h -0.55 -0.93 l -2.51,0.06 v 0.21 a 0.74,0.74 0 0 1 0.57,0.39 2.55,2.55 0 0 1 0.19,1.17 v 8.3199999 a 2.54,2.54 0 0 1 -0.19,1.12 0.7,0.7 0 0 1 -0.57,0.39 z m 4.07,-0.32 a 3,3 0 0 1 -1.48,-0.22 c -0.22,-0.16 -0.32,-0.53 -0.32,-1.12 v -4.44 h 2 a 3.93,3.93 0 0 1 2.56,0.71 2.75,2.75 0 0 1 0.85,2.19 2.65,2.65 0 0 1 -0.88,2.18 4.24,4.24 0 0 1 -2.73,0.7 z m -1.63,-5.61 v 4.27 c 0,0.65 0.14,0.89 0.26,1 a 2.65,2.65 0 0 0 1.37,0.2 4.2,4.2 0 0 0 2.58,-0.66 2.49,2.49 0 0 0 0.81,-2 2.52,2.52 0 0 0 -0.79,-2 3.68,3.68 0 0 0 -2.44,-0.68 z m 1,-0.49 h -1.17 V 6.6803341 c 0,-0.62 0.12,-1 0.38,-1.19 a 2.82,2.82 0 0 1 1.5,-0.26 3.55,3.55 0 0 1 2.29,0.66 2.36,2.36 0 0 1 0.82,1.91 2.12,2.12 0 0 1 -0.9,1.91 5.71,5.71 0 0 1 -2.99,0.5699999 z m -1,-0.18 h 1 a 5.56,5.56 0 0 0 2.85,-0.5399999 1.92,1.92 0 0 0 0.82,-1.76 2.16,2.16 0 0 0 -0.75,-1.77 3.35,3.35 0 0 0 -2.18,-0.63 2.82,2.82 0 0 0 -1.4,0.23 c -0.2,0.15 -0.31,0.5 -0.31,1 z"
     id="path104" />
  <path
     class="cls-2"
     d="m 265.21,16.790334 v -0.32 a 0.6,0.6 0 0 0 0.57,-0.34 2.54,2.54 0 0 0 0.18,-1.11 V 6.7003341 a 2.55,2.55 0 0 0 -0.18,-1.13 0.62,0.62 0 0 0 -0.57,-0.34 v -0.32 l 2.68,-0.13 h 1 0.57 a 6.89,6.89 0 0 1 3.81,0.94 2.85,2.85 0 0 1 1.39,2.45 2.57,2.57 0 0 1 -0.87,1.9999999 4.69,4.69 0 0 1 -2.42,1.1 29.06,29.06 0 0 0 1.78,4.16 8.48,8.48 0 0 0 1.8,2.43 v 0.31 a 8,8 0 0 1 -3.13,-2.47 15,15 0 0 1 -2.32,-4.34 h -0.75 -1.06 -0.05 v 3.71 a 2.48,2.48 0 0 0 0.18,1.11 0.62,0.62 0 0 0 0.58,0.34 v 0.32 z m 2.43,-6 0.52,0.07 h 0.72 a 5.22,5.22 0 0 0 3,-0.69 2.4,2.4 0 0 0 1,-2.0999999 2.75,2.75 0 0 0 -0.86,-2.16 3.57,3.57 0 0 0 -2.44,-0.76 2.69,2.69 0 0 0 -1.49,0.29 1.24,1.24 0 0 0 -0.41,1.08 z"
     id="path106" />
  <path
     class="cls-2"
     d="m 275.03,18.270334 h -0.12 a 8.19,8.19 0 0 1 -3.16,-2.5 15.06,15.06 0 0 1 -2.31,-4.3 h -0.69 -1 v 3.62 a 2.42,2.42 0 0 0 0.17,1.07 0.53,0.53 0 0 0 0.5,0.29 h 0.09 v 0.48 h -3.37 v -0.48 h 0.08 a 0.54,0.54 0 0 0 0.51,-0.29 2.54,2.54 0 0 0 0.16,-1.07 V 6.7003341 a 2.56,2.56 0 0 0 -0.16,-1.09 0.57,0.57 0 0 0 -0.51,-0.3 h -0.08 v -0.48 l 2.77,-0.14 h 1 0.57 a 7,7 0 0 1 3.86,1 2.93,2.93 0 0 1 1.41,2.48 2.68,2.68 0 0 1 -0.9,1.9999999 4.85,4.85 0 0 1 -2.36,1.1 29,29 0 0 0 1.73,4.05 8.83,8.83 0 0 0 1.78,2.41 v 0 z m -5.53,-7 h 0.07 v 0.06 a 14.74,14.74 0 0 0 2.3,4.31 8,8 0 0 0 3,2.39 v -0.17 a 8.73,8.73 0 0 1 -1.79,-2.43 28.14,28.14 0 0 1 -1.8,-4.2 v -0.1 h 0.1 a 4.62,4.62 0 0 0 2.37,-1.07 2.53,2.53 0 0 0 0.83,-1.8899999 2.78,2.78 0 0 0 -1.38,-2.41 6.79,6.79 0 0 0 -3.76,-0.92 h -0.57 -1 l -2.61,0.13 v 0.2 a 0.74,0.74 0 0 1 0.57,0.39 2.55,2.55 0 0 1 0.19,1.17 v 8.3199999 a 2.54,2.54 0 0 1 -0.19,1.15 0.7,0.7 0 0 1 -0.57,0.39 v 0.14 h 3 v -0.14 a 0.72,0.72 0 0 1 -0.57,-0.38 2.74,2.74 0 0 1 -0.18,-1.16 v -3.8 h 0.13 c 0.47,0 0.82,0 1.06,0 h 0.75 z m -0.62,-0.27 c -0.29,0 -0.53,0 -0.72,0 a 2.62,2.62 0 0 1 -0.53,-0.07 h -0.07 V 6.5503341 a 1.32,1.32 0 0 1 0.44,-1.15 2.77,2.77 0 0 1 1.54,-0.31 3.58,3.58 0 0 1 2.49,0.79 2.79,2.79 0 0 1 0.9,2.22 2.48,2.48 0 0 1 -1,2.1699999 5.29,5.29 0 0 1 -3.05,0.7 z m -1.15,-0.25 a 2.75,2.75 0 0 0 0.44,0.06 h 0.71 a 5.21,5.21 0 0 0 2.94,-0.67 2.32,2.32 0 0 0 0.93,-1.9999999 2.66,2.66 0 0 0 -0.83,-2.09 3.51,3.51 0 0 0 -2.38,-0.74 2.64,2.64 0 0 0 -1.43,0.27 1.15,1.15 0 0 0 -0.38,1 z"
     id="path108" />
  <path
     class="cls-2"
     d="m 276.63,16.790334 v -0.31 a 0.66,0.66 0 0 0 0.59,-0.36 2.64,2.64 0 0 0 0.17,-1.1 V 6.7003341 a 2.56,2.56 0 0 0 -0.18,-1.12 0.63,0.63 0 0 0 -0.58,-0.35 v -0.32 h 3.23 v 0.32 a 0.63,0.63 0 0 0 -0.58,0.34 2.55,2.55 0 0 0 -0.18,1.13 v 8.3199999 a 2.48,2.48 0 0 0 0.18,1.15 0.62,0.62 0 0 0 0.58,0.34 v 0.32 z"
     id="path110" />
  <path
     class="cls-2"
     d="m 279.95,16.870334 h -3.41 v -0.47 h 0.09 a 0.55,0.55 0 0 0 0.51,-0.31 2.46,2.46 0 0 0 0.16,-1.06 V 6.7003341 a 2.53,2.53 0 0 0 -0.17,-1.08 0.53,0.53 0 0 0 -0.5,-0.31 h -0.09 v -0.49 h 3.41 v 0.49 h -0.09 a 0.55,0.55 0 0 0 -0.5,0.3 2.56,2.56 0 0 0 -0.17,1.09 v 8.3199999 a 2.61,2.61 0 0 0 0.16,1.07 0.54,0.54 0 0 0 0.51,0.29 h 0.09 z m -3.23,-0.17 h 3.05 v -0.15 a 0.71,0.71 0 0 1 -0.57,-0.38 2.65,2.65 0 0 1 -0.18,-1.15 V 6.7003341 a 2.76,2.76 0 0 1 0.18,-1.17 0.74,0.74 0 0 1 0.57,-0.39 v -0.14 h -3.05 v 0.17 a 0.73,0.73 0 0 1 0.57,0.4 2.56,2.56 0 0 1 0.19,1.16 v 8.3199999 a 2.46,2.46 0 0 1 -0.2,1.12 0.71,0.71 0 0 1 -0.57,0.4 z"
     id="path112" />
  <path
     class="cls-2"
     d="m 281.02,16.790334 v -0.32 a 2.09,2.09 0 0 0 1,-0.78 7.32,7.32 0 0 0 0.85,-1.94 l 3,-9.0999999 h 1 l 3.29,10.1199999 a 4.86,4.86 0 0 0 0.55,1.28 0.78,0.78 0 0 0 0.57,0.42 v 0.32 h -3.21 v -0.32 a 0.78,0.78 0 0 0 0.41,-0.22 0.53,0.53 0 0 0 0.16,-0.39 2.61,2.61 0 0 0 -0.14,-0.61 c 0,-0.09 -0.05,-0.15 -0.06,-0.2 l -0.65,-2.12 h -4.06 l -0.45,1.59 c 0,0.16 -0.08,0.31 -0.11,0.46 a 2.77,2.77 0 0 0 0,0.39 1.27,1.27 0 0 0 0.2,0.74 0.93,0.93 0 0 0 0.6,0.36 v 0.32 z m 2.94,-4.44 h 3.7 l -1.78,-5.8699999 z"
     id="path114" />
  <path
     class="cls-2"
     d="m 291.41,16.870334 h -3.39 v -0.47 h 0.07 a 0.74,0.74 0 0 0 0.37,-0.2 0.44,0.44 0 0 0 0.13,-0.33 2.43,2.43 0 0 0 -0.13,-0.59 l -0.07,-0.2 -0.63,-2.05 h -3.93 l -0.49,1.52 a 2.93,2.93 0 0 0 -0.11,0.45 2.75,2.75 0 0 0 0,0.38 1.11,1.11 0 0 0 0.19,0.69 0.84,0.84 0 0 0 0.54,0.33 h 0.07 v 0.47 h -3.07 v -0.46 h 0.06 a 2,2 0 0 0 1,-0.75 7.51,7.51 0 0 0 0.84,-1.92 l 3,-9.1499999 h 1.16 v 0.06 l 3.26,10.0999999 a 5.63,5.63 0 0 0 0.54,1.26 c 0.16,0.24 0.33,0.37 0.51,0.37 h 0.08 z m -3.21,-0.17 h 3 v -0.15 a 0.94,0.94 0 0 1 -0.57,-0.45 5.57,5.57 0 0 1 -0.56,-1.3 L 286.81,4.7403341 h -0.91 l -2.95,8.9999999 a 7.42,7.42 0 0 1 -0.87,2 2.15,2.15 0 0 1 -1,0.79 v 0.17 h 2.73 v -0.16 a 1,1 0 0 1 -0.53,-0.37 1.37,1.37 0 0 1 -0.22,-0.79 2.1,2.1 0 0 1 0,-0.41 3.15,3.15 0 0 1 0.11,-0.47 l 0.53,-1.65 h 4.19 l 0.67,2.18 0.07,0.2 a 2.87,2.87 0 0 1 0.14,0.64 0.63,0.63 0 0 1 -0.18,0.45 0.86,0.86 0 0 1 -0.39,0.23 z m -0.42,-4.26 h -3.94 v -0.12 l 2,-6.1299999 0.08,0.27 z m -3.7,-0.18 h 3.46 l -1.67,-5.4799999 z"
     id="path116" />
  <path
     class="cls-2"
     d="M 294.2,23.910334 H 38.649999 a 0.18,0.18 0 1 1 0,-0.36 H 294.2 a 0.18,0.18 0 1 1 0,0.36 z"
     id="path118" />
  <path
     class="cls-2"
     d="m 38.649999,23.900334 a 0.17,0.17 0 0 1 -0.17,-0.17 V 0.17033408 a 0.16,0.16 0 0 1 0.17,-0.17000000262 0.17,0.17 0 0 1 0.18,0.17000000262 V 23.730334 a 0.18,0.18 0 0 1 -0.18,0.17 z"
     id="path120" />
</svg>
